<svg width="32" height="32" viewBox="0 0 36 41" fill="none" xmlns="http://www.w3.org/2000/svg">
<g clip-path="url(#clip0_115_3409)">
<path d="M18 40.9999C27.9411 40.9999 36 31.9183 36 20.7157C36 9.51297 27.9411 0.431396 18 0.431396C8.05888 0.431396 0 9.51297 0 20.7157C0 31.9183 8.05888 40.9999 18 40.9999Z" fill="#3B5998"/>
<path d="M22.5252 21.5096H19.3133V34.7697H14.447V21.5096H12.1326V16.8495H14.447V13.8339C14.447 11.6774 15.3561 8.30054 19.3566 8.30054L22.9613 8.31753V12.841H20.3459C19.9169 12.841 19.3136 13.0825 19.3136 14.1112V16.8539H22.9503L22.5252 21.5096Z" fill="white"/>
</g>
<defs>
<clipPath id="clip0_115_3409">
<rect width="36" height="40.5685" fill="white" transform="translate(0 0.431396)"/>
</clipPath>
</defs>
</svg>
