<svg width="32" height="32" viewBox="0 0 38 37" fill="none" xmlns="http://www.w3.org/2000/svg">
<path d="M19 36.9368C29.4934 36.9368 38 28.6682 38 18.4684C38 8.26858 29.4934 0 19 0C8.50659 0 0 8.26858 0 18.4684C0 28.6682 8.50659 36.9368 19 36.9368Z" fill="url(#paint0_linear_134_3373)"/>
<path d="M24.9002 11.4827C24.1725 11.4827 23.5876 12.0511 23.5876 12.7585C23.5876 13.4659 24.1725 14.0344 24.9002 14.0344C25.628 14.0344 26.2128 13.4659 26.2128 12.7585C26.2128 12.0511 25.628 11.4827 24.9002 11.4827Z" fill="white"/>
<path d="M19.0909 13.1108C16.0629 13.1108 13.6066 15.4983 13.6066 18.4417C13.6066 21.385 16.0629 23.7725 19.0909 23.7725C22.1189 23.7725 24.5752 21.385 24.5752 18.4417C24.5752 15.4983 22.1189 13.1108 19.0909 13.1108ZM19.0909 21.865C17.1545 21.865 15.582 20.3365 15.582 18.4543C15.582 16.5721 17.1545 15.0436 19.0909 15.0436C21.0273 15.0436 22.5998 16.5721 22.5998 18.4543C22.5998 20.3365 21.0273 21.865 19.0909 21.865Z" fill="white"/>
<path d="M23.4446 29.2682H14.5554C10.8646 29.2682 7.86255 26.3501 7.86255 22.7626V14.1221C7.86255 10.5345 10.8646 7.61646 14.5554 7.61646H23.4446C27.1355 7.61646 30.1375 10.5345 30.1375 14.1221V22.7626C30.1375 26.3501 27.1355 29.2682 23.4446 29.2682ZM14.5554 9.65025C12.0212 9.65025 9.95489 11.6588 9.95489 14.1221V22.7626C9.95489 25.2258 12.0212 27.2344 14.5554 27.2344H23.4446C25.9788 27.2344 28.0452 25.2258 28.0452 22.7626V14.1221C28.0452 11.6588 25.9788 9.65025 23.4446 9.65025H14.5554Z" fill="white"/>
<defs>
<linearGradient id="paint0_linear_134_3373" x1="32.4378" y1="5.40661" x2="6.32473" y2="32.2713" gradientUnits="userSpaceOnUse">
<stop stop-color="#FBE18A"/>
<stop offset="0.21" stop-color="#FCBB45"/>
<stop offset="0.38" stop-color="#F75274"/>
<stop offset="0.52" stop-color="#D53692"/>
<stop offset="0.74" stop-color="#8F39CE"/>
<stop offset="1" stop-color="#5B4FE9"/>
</linearGradient>
</defs>
</svg>
