<!DOCTYPE svg PUBLIC "-//W3C//DTD SVG 1.1//EN" "http://www.w3.org/Graphics/SVG/1.1/DTD/svg11.dtd">
<!-- Uploaded to: SVG Repo, www.svgrepo.com, Transformed by: SVG Repo Mixer Tools -->
<svg fill="#000000" width="96px" height="96px" viewBox="0 0 24 24" xmlns="http://www.w3.org/2000/svg">
<g id="SVGRepo_bgCarrier" stroke-width="0"/>
<g id="SVGRepo_tracerCarrier" stroke-linecap="round" stroke-linejoin="round"/>
<g id="SVGRepo_iconCarrier">
<path d="M20,3V6H4V3A1,1,0,0,1,5,2H19A1,1,0,0,1,20,3ZM4,8H20V21a1,1,0,0,1-1,1H14a1,1,0,0,1-1-1V16a1,1,0,0,0-2,0v5a1,1,0,0,1-1,1H5a1,1,0,0,1-1-1Zm11,2.141A3.987,3.987,0,0,0,17.859,13V10.141ZM6.141,13A3.987,3.987,0,0,0,9,10.141H6.141Z"/>
</g>
</svg>