<svg width="32" height="32" viewBox="0 0 35 39" fill="none" xmlns="http://www.w3.org/2000/svg">
<path d="M24.6697 8.02017C24.6697 8.03634 24.6697 8.03634 24.6697 8.05251C24.311 8.03634 23.9522 8.02017 23.5648 8.02017H12.5161L14.0514 6.30617C15.4576 4.70535 17.0073 3.23389 18.801 3.23389C20.6089 3.23389 22.1586 4.70535 23.5648 6.30617L24.3683 7.21168C24.5692 7.42189 24.6697 7.71295 24.6697 8.02017Z" fill="white"/>
<path d="M29.9045 21.2944C30.4641 21.2944 30.9089 20.7769 30.9089 20.1301V18.7072C30.9089 12.3524 29.1871 10.4282 23.5623 10.4282H14.5224H10.8779C5.25306 10.4282 3.53119 12.3686 3.53119 18.7072V19.4025C3.53119 20.0493 3.97601 20.5505 4.53562 20.5505C5.74093 20.5505 6.70231 21.6501 6.70231 22.9922C6.70231 24.3343 5.74093 25.45 4.53562 25.45C3.97601 25.45 3.53119 25.9513 3.53119 26.5981V27.2934C3.53119 33.6482 5.25306 35.5724 10.8779 35.5724H14.5081H23.5479C29.1727 35.5724 30.8946 33.632 30.8946 27.2934C30.8946 26.6628 30.4498 26.1453 29.8902 26.1453C28.6849 26.1453 27.7235 25.0619 27.7235 23.7198C27.7378 22.3777 28.6992 21.2944 29.9045 21.2944ZM15.5269 30.495C15.5269 31.1256 15.0677 31.6431 14.5081 31.6431C13.9485 31.6431 13.4894 31.1256 13.4894 30.495V26.1615C13.4894 25.5309 13.9485 25.0134 14.5081 25.0134C15.0677 25.0134 15.5269 25.5309 15.5269 26.1615V30.495ZM15.5269 19.8391C15.5269 20.4697 15.0677 20.9871 14.5081 20.9871C13.9485 20.9871 13.4894 20.4697 13.4894 19.8391V15.5056C13.4894 14.8749 13.9485 14.3575 14.5081 14.3575C15.0677 14.3575 15.5269 14.8749 15.5269 15.5056V19.8391Z" fill="white"/>
</svg>
