<svg width="32" height="32" viewBox="0 0 36 41" fill="none" xmlns="http://www.w3.org/2000/svg">
<path d="M18.0002 40.9996C27.9412 40.9996 36 31.9181 36 20.7155C36 9.51289 27.9412 0.431396 18.0002 0.431396C8.05917 0.431396 0.000366211 9.51289 0.000366211 20.7155C0.000366211 31.9181 8.05917 40.9996 18.0002 40.9996Z" fill="#55ACEE"/>
<path d="M29.0257 15.009C28.2543 15.3944 27.4246 15.6551 26.5544 15.7716C27.4428 15.1717 28.1247 14.2225 28.4465 13.0897C27.6151 13.6455 26.6939 14.0486 25.7143 14.2659C24.9295 13.324 23.8113 12.7354 22.5731 12.7354C20.1974 12.7354 18.2706 14.9067 18.2706 17.5838C18.2706 17.9638 18.3088 18.3337 18.3826 18.6888C14.8069 18.4867 11.6364 16.5566 9.51424 13.6223C9.14396 14.3382 8.93155 15.1717 8.93155 16.0601C8.93155 17.7418 9.69167 19.2265 10.8455 20.0957C10.1406 20.0708 9.4767 19.8528 8.89689 19.4886C8.89657 19.5092 8.89657 19.5299 8.89657 19.5501C8.89657 21.8993 10.3803 23.8587 12.3481 24.3038C11.9875 24.4152 11.6066 24.4741 11.2148 24.4741C10.9369 24.4741 10.6677 24.4441 10.4053 24.3877C10.9527 26.3135 12.5413 27.7154 14.4244 27.7548C12.9517 29.0554 11.0967 29.8303 9.08043 29.8303C8.7339 29.8303 8.39057 29.8075 8.05463 29.7623C9.95767 31.1385 12.2198 31.9408 14.6493 31.9408C22.5631 31.9408 26.891 24.553 26.891 18.1454C26.891 17.9353 26.8868 17.7259 26.8784 17.5184C27.7198 16.835 28.4491 15.9813 29.0257 15.009Z" fill="#F1F2F2"/>
</svg>
